<svg id="eBej786pMzH1" xmlns="http://www.w3.org/2000/svg" xmlns:xlink="http://www.w3.org/1999/xlink" viewBox="0 0 5.660006 10.534159" shape-rendering="geometricPrecision" text-rendering="geometricPrecision" project-id="42905ee9252441548d769316f78e4826" export-id="689d596e35604217aab6bb4e272da22d" cached="false"><g fill="#f4e9c8"><path d="M0.368152,1.615708v-1.353247L0,0l-.368152.262461v1.353247h.368152.368152Z" transform="matrix(1 0 0-1 2.83 5.50577)" stroke="#f4e9c8" stroke-width="0.037795" stroke-linecap="round" stroke-linejoin="round"/><path d="M0,-1.902506h.461987l.352894-.247026v.670499l-.331721.204679h-.48316-.48316l-.331721-.204679v-.670499l.352894.247026h.461987Z" transform="matrix(1 0 0-1 2.83 5.50577)" stroke="#f4e9c8" stroke-width="0.037795" stroke-linecap="round" stroke-linejoin="round"/><path d="M-0.838491,-2.711667l.621479.46322v-2.779944l-.621479.588371v1.728353Z" transform="matrix(1 0 0-1 2.83 5.50577)" stroke="#f4e9c8" stroke-width="0.037795" stroke-linecap="round" stroke-linejoin="round"/><path d="M-1.828628,-3.525958v2.682732l1.165932.835624.46737-.348323v-.527908h-.457644l-.553502-.410263v-2.812604l-.622156.580742Z" transform="matrix(1 0 0-1 2.83 5.50577)" stroke="#f4e9c8" stroke-width="0.037795" stroke-linecap="round" stroke-linejoin="round"/><path d="M-2.173191,-0.401553l-.642288.533296v-2.686803l.610102-.617364.032186,2.770871Z" transform="matrix(1 0 0-1 2.83 5.50577)" stroke="#f4e9c8" stroke-width="0.037795" stroke-linecap="round" stroke-linejoin="round"/><path d="M-2.815121,0.494595l1.110743-.784054.944073.660851v.602754l-.472037-.406677-1.352595.954773-.245066-.11237.014882-.915277Z" transform="matrix(1 0 0-1 2.83 5.50577)" stroke="#f4e9c8" stroke-width="0.037795" stroke-linecap="round" stroke-linejoin="round"/><path d="M-2.226402,1.77517l.438666.338703.99857-.6622-.47786-.402408-.959376.725905Z" transform="matrix(1 0 0-1 2.83 5.50577)" stroke="#f4e9c8" stroke-width="0.037795" stroke-linecap="round" stroke-linejoin="round"/><path d="M0.378303,2.002828v.336033L0,2.612857l-.378303-.273996v-.336033h.378303.378303Z" transform="matrix(1 0 0-1 2.83 5.50577)" stroke="#f4e9c8" stroke-width="0.037795" stroke-linecap="round" stroke-linejoin="round"/><path d="M-0.745354,2.35437v-.485955l-1.018438.703084-1.064965-.754781v.806479l.86992.616545l1.213483-.885372Z" transform="matrix(1 0 0-1 2.83 5.50577)" stroke="#f4e9c8" stroke-width="0.037795" stroke-linecap="round" stroke-linejoin="round"/><path d="M-2.788336,3.097061l.621068.440174v1.331314l-.621068-.544276v-1.227212Z" transform="matrix(1 0 0-1 2.83 5.50577)" stroke="#f4e9c8" stroke-width="0.037795" stroke-linecap="round" stroke-linejoin="round"/><path d="M-0.162897,5.505768v0l-.055315-.003692-.05506-.004302-.054803-.004917-.054543-.00554-.054279-.006171-.05401-.006815-.053736-.007474-.053454-.008148-.053164-.00884-.052868-.00955-.052564-.010279-.052251-.011027-.051932-.011792-.051606-.012573-.051274-.013367-.050939-.014169-.050601-.014976-.050266-.015781-.049933-.016579-.049603-.017366-.049281-.018139-.048965-.018894-.048657-.019634-.048356-.020354-.048062-.021056-.047777-.021741-.047497-.02241-.047223-.023065-.046955-.023708-.046691-.024341-.046429-.024966-.04617-.025588v-1.446263L-0.5189,2.702244l.356003.255877v2.547647Z" transform="matrix(1 0 0-1 2.83 5.50577)" stroke="#f4e9c8" stroke-width="0.037795" stroke-linecap="round" stroke-linejoin="round"/><path d="M1.763792,2.571499l1.064966-.754781v.806479l-.869921.616545L0.745354,2.35437v-.485955l1.018438.703084Z" transform="matrix(1 0 0-1 2.83 5.50577)" stroke="#f4e9c8" stroke-width="0.037795" stroke-linecap="round" stroke-linejoin="round"/><path d="M0.217012,-2.248447v-2.779944l.621479.588371v1.728353l-.621479.46322Z" transform="matrix(1 0 0-1 2.83 5.50577)" stroke="#f4e9c8" stroke-width="0.037795" stroke-linecap="round" stroke-linejoin="round"/><path d="M0.662696,-0.007602l-.46737-.348323v-.527908h.457644l.553502-.410263v-2.812604l.622156.580742v2.682732l-1.165932.835624Z" transform="matrix(1 0 0-1 2.83 5.50577)" stroke="#f4e9c8" stroke-width="0.037795" stroke-linecap="round" stroke-linejoin="round"/><path d="M2.167268,3.537235v1.331314l.621068-.544276v-1.227212l-.621068.440174Z" transform="matrix(1 0 0-1 2.83 5.50577)" stroke="#f4e9c8" stroke-width="0.037795" stroke-linecap="round" stroke-linejoin="round"/><path d="M0.162897,5.505768v0l.055315-.003692.05506-.004302.054803-.004917.054543-.00554.054279-.006171.054011-.006815.053735-.007474.053454-.008148.053164-.00884.052868-.00955.052564-.010279.052251-.011027.051932-.011792.051606-.012573.051274-.013367.050939-.014169.050602-.014976.050265-.015781.049933-.016579.049603-.017366.049281-.018139.048966-.018894.048656-.019634.048356-.020354.048063-.021056.047776-.021741.047497-.02241.047223-.023065.046955-.023708.046691-.024341.046429-.024966.04617-.025588v-1.446263L0.5189,2.702244l-.356003.255877v2.547647Z" transform="matrix(1 0 0-1 2.83 5.50577)" stroke="#f4e9c8" stroke-width="0.037795" stroke-linecap="round" stroke-linejoin="round"/><path d="M2.584937,1.522242l.245066-.11237-.014882-.915277-1.110743-.784054-.944072.660851v.602754l.472036-.406677l1.352595.954773Z" transform="matrix(1 0 0-1 2.83 5.50577)" stroke="#f4e9c8" stroke-width="0.037795" stroke-linecap="round" stroke-linejoin="round"/><path d="M1.787737,2.113873l-.998571-.6622.47786-.402408.959376.725905-.438665.338703Z" transform="matrix(1 0 0-1 2.83 5.50577)" stroke="#f4e9c8" stroke-width="0.037795" stroke-linecap="round" stroke-linejoin="round"/><path d="M2.173191,-0.401553l.642288.533296v-2.686803l-.610102-.617364-.032186,2.770871Z" transform="matrix(1 0 0-1 2.83 5.50577)" stroke="#f4e9c8" stroke-width="0.037795" stroke-linecap="round" stroke-linejoin="round"/></g></svg>
