<svg xmlns="http://www.w3.org/2000/svg" xmlns:xlink="http://www.w3.org/1999/xlink" zoomAndPan="magnify" viewBox="148 -6 556 322" preserveAspectRatio="xMidYMid meet" version="1.0"><defs><g/><clipPath id="4626501bcc"><path d="M 619.636719 0.015625 L 489.246094 130.460938 L 521.285156 130.460938 L 629.019531 22.683594 L 677.085938 22.683594 L 677.085938 70.765625 L 549.441406 198.460938 L 462.699219 198.460938 L 462.699219 175.792969 L 530.671875 175.792969 L 553.328125 153.128906 L 440.042969 153.128906 L 440.042969 221.128906 L 530.671875 221.128906 L 530.671875 243.792969 L 462.699219 243.792969 L 394.726562 311.792969 L 426.769531 311.792969 L 472.082031 266.460938 L 553.328125 266.460938 L 553.328125 226.625 L 699.742188 80.152344 L 699.742188 0.015625 Z M 619.636719 0.015625 " clip-rule="nonzero"/></clipPath><clipPath id="e4647adb8a"><path d="M 239.03125 162.25 L 553.4375 464.234375 L 855.433594 149.558594 L 541.023438 -152.425781 Z M 239.03125 162.25 " clip-rule="nonzero"/></clipPath><radialGradient gradientTransform="matrix(0.692432, -0.721495, 0.721204, 0.692711, 396.419625, 310.307426)" gradientUnits="userSpaceOnUse" r="412.57741" cx="0" id="fbadad0c0d" cy="0" fx="0" fy="0"><stop stop-opacity="1" stop-color="rgb(90.412903%, 77.844238%, 42.153931%)" offset="0"/><stop stop-opacity="1" stop-color="rgb(63.139343%, 46.669006%, 17.248535%)" offset="1"/></radialGradient><clipPath id="631790be75"><path d="M 0.25 0.347656 L 86 0.347656 L 86 125 L 0.25 125 Z M 0.25 0.347656 " clip-rule="nonzero"/></clipPath><clipPath id="aa15cc6a74"><path d="M 183 0.347656 L 265 0.347656 L 265 125 L 183 125 Z M 183 0.347656 " clip-rule="nonzero"/></clipPath><clipPath id="55634eedcf"><rect x="0" width="282" y="0" height="167"/></clipPath></defs><g clip-path="url(#4626501bcc)"><g clip-path="url(#e4647adb8a)"><path fill="url(#fbadad0c0d)" d="M 240.089844 161.855469 L 553.742188 463.121094 L 855.015625 149.203125 L 541.363281 -152.0625 Z M 240.089844 161.855469 " fill-rule="nonzero"/></g></g><g fill="#d1ac55" fill-opacity="1"><g transform="translate(180.729786, 140.503671)"><g><path d="M 32.140625 -60.53125 L 32.140625 -49.015625 L 13.4375 -49.015625 C 12.90625 -49.015625 12.460938 -48.828125 12.109375 -48.453125 C 11.765625 -48.085938 11.59375 -47.664062 11.59375 -47.1875 L 11.59375 -13.515625 C 11.59375 -12.984375 11.765625 -12.539062 12.109375 -12.1875 C 12.460938 -11.84375 12.90625 -11.671875 13.4375 -11.671875 L 32.140625 -11.671875 L 32.140625 -0.078125 L 13.4375 -0.078125 C 10.976562 -0.078125 8.722656 -0.675781 6.671875 -1.875 C 4.617188 -3.070312 2.992188 -4.695312 1.796875 -6.75 C 0.597656 -8.8125 0 -11.066406 0 -13.515625 L 0 -47.1875 C 0 -49.632812 0.597656 -51.867188 1.796875 -53.890625 C 2.992188 -55.921875 4.617188 -57.535156 6.671875 -58.734375 C 8.722656 -59.929688 10.976562 -60.53125 13.4375 -60.53125 Z M 32.140625 -60.53125 "/></g></g></g><g fill="#d1ac55" fill-opacity="1"><g transform="translate(223.748501, 140.503671)"><g><path d="M 14.953125 -12.078125 L 12 -0.078125 L 0 -0.078125 L 15.109375 -60.53125 L 15.109375 -60.609375 L 21.03125 -60.609375 L 21.109375 -60.53125 L 23.671875 -60.53125 L 23.828125 -60.609375 L 29.75 -60.609375 L 41.34375 -0.078125 L 29.59375 -0.078125 L 27.265625 -12.078125 Z M 21.90625 -40.0625 L 17.828125 -23.671875 L 25.03125 -23.671875 Z M 21.90625 -40.0625 "/></g></g></g><g fill="#d1ac55" fill-opacity="1"><g transform="translate(275.962447, 140.503671)"><g><path d="M 0 -0.078125 L 0 -60.609375 L 11.59375 -60.609375 L 11.59375 -11.671875 L 32.0625 -11.671875 L 32.0625 -0.078125 Z M 0 -0.078125 "/></g></g></g><g fill="#d1ac55" fill-opacity="1"><g transform="translate(318.901203, 140.503671)"><g><path d="M 0 -0.078125 L 0 -60.609375 L 11.59375 -60.609375 L 11.59375 -11.671875 L 32.0625 -11.671875 L 32.0625 -0.078125 Z M 0 -0.078125 "/></g></g></g><g fill="#d1ac55" fill-opacity="1"><g transform="translate(361.839959, 140.503671)"><g/></g></g><g fill="#d1ac55" fill-opacity="1"><g transform="translate(384.709106, 140.503671)"><g><path d="M 0 -60.375 L 15.515625 -60.375 L 15.515625 -60.453125 L 27.03125 -60.453125 L 27.03125 -60.375 L 42.546875 -60.375 L 42.546875 -48.859375 L 27.03125 -48.859375 L 27.03125 0.078125 L 15.515625 0.078125 L 15.515625 -48.859375 L 0 -48.859375 Z M 0 -60.375 "/></g></g></g><g fill="#d1ac55" fill-opacity="1"><g transform="translate(438.122441, 140.503671)"><g><path d="M 21.828125 -60.375 C 24.335938 -60.375 26.601562 -59.773438 28.625 -58.578125 C 30.65625 -57.378906 32.269531 -55.765625 33.46875 -53.734375 C 34.664062 -51.710938 35.265625 -49.445312 35.265625 -46.9375 L 35.265625 -13.359375 C 35.265625 -10.898438 34.664062 -8.644531 33.46875 -6.59375 C 32.269531 -4.539062 30.65625 -2.914062 28.625 -1.71875 C 26.601562 -0.519531 24.335938 0.078125 21.828125 0.078125 L 13.4375 0.078125 C 10.976562 0.078125 8.734375 -0.519531 6.703125 -1.71875 C 4.679688 -2.914062 3.054688 -4.539062 1.828125 -6.59375 C 0.609375 -8.644531 0 -10.898438 0 -13.359375 L 0 -46.9375 C 0 -49.445312 0.609375 -51.710938 1.828125 -53.734375 C 3.054688 -55.765625 4.679688 -57.378906 6.703125 -58.578125 C 8.734375 -59.773438 10.976562 -60.375 13.4375 -60.375 Z M 23.75 -13.359375 L 23.75 -46.9375 C 23.75 -47.46875 23.5625 -47.921875 23.1875 -48.296875 C 22.8125 -48.671875 22.359375 -48.859375 21.828125 -48.859375 L 13.4375 -48.859375 C 12.90625 -48.859375 12.460938 -48.671875 12.109375 -48.296875 C 11.765625 -47.921875 11.59375 -47.46875 11.59375 -46.9375 L 11.59375 -13.359375 C 11.59375 -12.828125 11.765625 -12.382812 12.109375 -12.03125 C 12.460938 -11.6875 12.90625 -11.515625 13.4375 -11.515625 L 21.828125 -11.515625 C 22.359375 -11.515625 22.8125 -11.6875 23.1875 -12.03125 C 23.5625 -12.382812 23.75 -12.828125 23.75 -13.359375 Z M 23.75 -13.359375 "/></g></g></g><g transform="matrix(1, 0, 0, 1, 153, 151)"><g clip-path="url(#55634eedcf)"><g clip-path="url(#631790be75)"><g fill="#f4e9c8" fill-opacity="1"><g transform="translate(0.84917, 124.980808)"><g><path d="M 30.59375 -24.703125 L 24.546875 -0.15625 L 0 -0.15625 L 30.921875 -123.859375 L 30.921875 -124.03125 L 43.03125 -124.03125 L 43.203125 -123.859375 L 48.4375 -123.859375 L 48.765625 -124.03125 L 60.875 -124.03125 L 84.59375 -0.15625 L 60.546875 -0.15625 L 55.796875 -24.703125 Z M 44.828125 -81.96875 L 36.484375 -48.4375 L 51.21875 -48.4375 Z M 44.828125 -81.96875 "/></g></g></g></g><g fill="#f4e9c8" fill-opacity="1"><g transform="translate(101.641582, 124.980808)"><g><path d="M 64.140625 -49.734375 L 64.296875 0.15625 L 40.75 0.15625 L 40.421875 -49.578125 C 40.421875 -50.554688 40.0625 -51.398438 39.34375 -52.109375 C 38.632812 -52.816406 37.738281 -53.171875 36.65625 -53.171875 L 23.71875 -53.171875 L 23.71875 0.15625 L 0 0.15625 L 0 -123.53125 L 31.09375 -123.703125 C 37.851562 -123.148438 43.847656 -121.289062 49.078125 -118.125 C 54.316406 -114.96875 58.410156 -110.828125 61.359375 -105.703125 C 64.304688 -100.578125 65.78125 -94.796875 65.78125 -88.359375 C 65.78125 -79.847656 63.21875 -72.539062 58.09375 -66.4375 C 61.90625 -61.738281 63.921875 -56.171875 64.140625 -49.734375 Z M 27.15625 -76.90625 C 28.03125 -76.90625 29.285156 -77.015625 30.921875 -77.234375 C 32.554688 -77.453125 34.21875 -77.914062 35.90625 -78.625 C 37.601562 -79.332031 39.050781 -80.476562 40.25 -82.0625 C 41.445312 -83.644531 42.046875 -85.742188 42.046875 -88.359375 C 42.046875 -91.191406 41.390625 -93.398438 40.078125 -94.984375 C 38.773438 -96.566406 37.25 -97.710938 35.5 -98.421875 C 33.757812 -99.128906 32.097656 -99.59375 30.515625 -99.8125 C 28.929688 -100.03125 27.8125 -100.140625 27.15625 -100.140625 L 23.890625 -100.140625 L 23.890625 -76.90625 Z M 27.15625 -76.90625 "/></g></g></g><g clip-path="url(#aa15cc6a74)"><g fill="#f4e9c8" fill-opacity="1"><g transform="translate(183.617275, 124.980808)"><g><path d="M 55.625 -124.03125 L 80.671875 -124.03125 L 80.671875 -0.15625 L 56.9375 -0.15625 L 56.9375 -72.15625 L 40.578125 -38.28125 L 23.71875 -72.8125 L 23.71875 -0.15625 L 0 -0.15625 L 0 -124.03125 L 25.03125 -124.03125 L 40.421875 -92.453125 Z M 55.625 -124.03125 "/></g></g></g></g></g></g></svg>
